<svg xmlns="http://www.w3.org/2000/svg" xmlns:xlink="http://www.w3.org/1999/xlink" width="500" zoomAndPan="magnify" viewBox="0 0 375 374.999991" height="500" preserveAspectRatio="xMidYMid meet" version="1.0"><defs><g/><clipPath id="id1"><path d="M 236.445312 160.859375 L 306.46875 160.859375 L 306.46875 230.878906 L 236.445312 230.878906 Z M 236.445312 160.859375 " clip-rule="nonzero"/></clipPath></defs><g clip-path="url(#id1)"><path fill="#f6f6f6" d="M 271.457031 160.859375 C 252.121094 160.859375 236.445312 176.535156 236.445312 195.871094 C 236.445312 215.207031 252.121094 230.878906 271.457031 230.878906 C 290.792969 230.878906 306.46875 215.207031 306.46875 195.871094 C 306.46875 176.535156 290.792969 160.859375 271.457031 160.859375 " fill-opacity="1" fill-rule="nonzero"/></g><g fill="#03045e" fill-opacity="1"><g transform="translate(248.259455, 215.015265)"><g><path d="M 13.25 -20.40625 L 1.03125 -40.015625 L 16.703125 -40.015625 L 22.78125 -28.78125 L 29 -40.015625 L 44.703125 -40.015625 L 32.171875 -20.40625 L 45.203125 0 L 29.53125 0 L 22.78125 -12.15625 L 16.0625 0 L 0.359375 0 Z M 13.25 -20.40625 "/></g></g></g><g fill="#f6f6f6" fill-opacity="1"><g transform="translate(68.772509, 212.061763)"><g><path d="M 24 -15.015625 L 29.15625 -15.015625 L 29.15625 -3.3125 C 27.644531 -2.113281 25.878906 -1.191406 23.859375 -0.546875 C 21.847656 0.0976562 19.78125 0.421875 17.65625 0.421875 C 14.664062 0.421875 11.96875 -0.226562 9.5625 -1.53125 C 7.15625 -2.832031 5.265625 -4.628906 3.890625 -6.921875 C 2.523438 -9.210938 1.84375 -11.800781 1.84375 -14.6875 C 1.84375 -17.5625 2.523438 -20.144531 3.890625 -22.4375 C 5.265625 -24.738281 7.160156 -26.535156 9.578125 -27.828125 C 12.003906 -29.128906 14.726562 -29.78125 17.75 -29.78125 C 20.207031 -29.78125 22.441406 -29.375 24.453125 -28.5625 C 26.472656 -27.757812 28.164062 -26.570312 29.53125 -25 L 26.09375 -21.640625 C 23.851562 -23.878906 21.15625 -25 18 -25 C 15.925781 -25 14.082031 -24.566406 12.46875 -23.703125 C 10.863281 -22.835938 9.609375 -21.617188 8.703125 -20.046875 C 7.796875 -18.484375 7.34375 -16.695312 7.34375 -14.6875 C 7.34375 -12.726562 7.796875 -10.960938 8.703125 -9.390625 C 9.609375 -7.828125 10.863281 -6.597656 12.46875 -5.703125 C 14.082031 -4.804688 15.910156 -4.359375 17.953125 -4.359375 C 20.242188 -4.359375 22.257812 -4.863281 24 -5.875 Z M 24 -15.015625 "/></g></g></g><g fill="#f6f6f6" fill-opacity="1"><g transform="translate(101.162713, 212.061763)"><g><path d="M 8.4375 -19.125 C 9.945312 -21.476562 12.601562 -22.65625 16.40625 -22.65625 L 16.40625 -17.65625 C 15.957031 -17.738281 15.550781 -17.78125 15.1875 -17.78125 C 13.144531 -17.78125 11.550781 -17.1875 10.40625 -16 C 9.257812 -14.8125 8.6875 -13.097656 8.6875 -10.859375 L 8.6875 0 L 3.4375 0 L 3.4375 -22.40625 L 8.4375 -22.40625 Z M 8.4375 -19.125 "/></g></g></g><g fill="#f6f6f6" fill-opacity="1"><g transform="translate(118.784329, 212.061763)"><g><path d="M 13.515625 0.296875 C 11.242188 0.296875 9.195312 -0.191406 7.375 -1.171875 C 5.5625 -2.148438 4.144531 -3.515625 3.125 -5.265625 C 2.101562 -7.015625 1.59375 -8.992188 1.59375 -11.203125 C 1.59375 -13.410156 2.101562 -15.378906 3.125 -17.109375 C 4.144531 -18.847656 5.5625 -20.207031 7.375 -21.1875 C 9.195312 -22.164062 11.242188 -22.65625 13.515625 -22.65625 C 15.804688 -22.65625 17.859375 -22.164062 19.671875 -21.1875 C 21.492188 -20.207031 22.914062 -18.847656 23.9375 -17.109375 C 24.957031 -15.378906 25.46875 -13.410156 25.46875 -11.203125 C 25.46875 -8.992188 24.957031 -7.015625 23.9375 -5.265625 C 22.914062 -3.515625 21.492188 -2.148438 19.671875 -1.171875 C 17.859375 -0.191406 15.804688 0.296875 13.515625 0.296875 Z M 13.515625 -4.1875 C 15.441406 -4.1875 17.03125 -4.832031 18.28125 -6.125 C 19.539062 -7.414062 20.171875 -9.109375 20.171875 -11.203125 C 20.171875 -13.296875 19.539062 -14.984375 18.28125 -16.265625 C 17.03125 -17.554688 15.441406 -18.203125 13.515625 -18.203125 C 11.578125 -18.203125 9.984375 -17.554688 8.734375 -16.265625 C 7.492188 -14.984375 6.875 -13.296875 6.875 -11.203125 C 6.875 -9.109375 7.492188 -7.414062 8.734375 -6.125 C 9.984375 -4.832031 11.578125 -4.1875 13.515625 -4.1875 Z M 13.515625 -4.1875 "/></g></g></g><g fill="#f6f6f6" fill-opacity="1"><g transform="translate(145.846096, 212.061763)"><g><path d="M 38.390625 -22.40625 L 30.125 0 L 25.09375 0 L 19.296875 -15.4375 L 13.421875 0 L 8.390625 0 L 0.171875 -22.40625 L 5.125 -22.40625 L 11.03125 -5.875 L 17.203125 -22.40625 L 21.609375 -22.40625 L 27.640625 -5.796875 L 33.734375 -22.40625 Z M 38.390625 -22.40625 "/></g></g></g><g fill="#f6f6f6" fill-opacity="1"><g transform="translate(184.403863, 212.061763)"><g><path d="M 16.90625 -1.21875 C 16.289062 -0.71875 15.539062 -0.335938 14.65625 -0.078125 C 13.78125 0.171875 12.851562 0.296875 11.875 0.296875 C 9.414062 0.296875 7.515625 -0.34375 6.171875 -1.625 C 4.828125 -2.914062 4.15625 -4.796875 4.15625 -7.265625 L 4.15625 -18.046875 L 0.46875 -18.046875 L 0.46875 -22.234375 L 4.15625 -22.234375 L 4.15625 -27.359375 L 9.390625 -27.359375 L 9.390625 -22.234375 L 15.390625 -22.234375 L 15.390625 -18.046875 L 9.390625 -18.046875 L 9.390625 -7.390625 C 9.390625 -6.296875 9.65625 -5.460938 10.1875 -4.890625 C 10.71875 -4.316406 11.488281 -4.03125 12.5 -4.03125 C 13.675781 -4.03125 14.65625 -4.335938 15.4375 -4.953125 Z M 16.90625 -1.21875 "/></g></g></g><g fill="#f6f6f6" fill-opacity="1"><g transform="translate(202.193296, 212.061763)"><g><path d="M 16.15625 -22.65625 C 18.976562 -22.65625 21.238281 -21.828125 22.9375 -20.171875 C 24.644531 -18.523438 25.5 -16.082031 25.5 -12.84375 L 25.5 0 L 20.265625 0 L 20.265625 -12.171875 C 20.265625 -14.128906 19.800781 -15.601562 18.875 -16.59375 C 17.957031 -17.582031 16.644531 -18.078125 14.9375 -18.078125 C 13.007812 -18.078125 11.484375 -17.492188 10.359375 -16.328125 C 9.242188 -15.171875 8.6875 -13.503906 8.6875 -11.328125 L 8.6875 0 L 3.4375 0 L 3.4375 -31.125 L 8.6875 -31.125 L 8.6875 -19.796875 C 9.550781 -20.722656 10.617188 -21.429688 11.890625 -21.921875 C 13.160156 -22.410156 14.582031 -22.65625 16.15625 -22.65625 Z M 16.15625 -22.65625 "/></g></g></g></svg>